HIERARCHY
ROOT Hips
{
	OFFSET -3.958830 18.904000 13.208200
	CHANNELS 6 Xposition Yposition Zposition Zrotation Yrotation Xrotation 
	JOINT LHipJoint
	{
		OFFSET 0.000000 0.000000 0.000000
		CHANNELS 3 Zrotation Yrotation Xrotation
		JOINT LeftUpLeg
		{
			OFFSET 1.800000 -1.400000 0.085000
			CHANNELS 3 Zrotation Yrotation Xrotation
			JOINT LeftLeg
			{
				OFFSET 2.215000 -6.000000 0.000000
				CHANNELS 3 Zrotation Yrotation Xrotation
				JOINT LeftFoot
				{
					OFFSET 2.500000 -6.900000 0.000000
					CHANNELS 3 Zrotation Yrotation Xrotation
					JOINT LeftToeBase
					{
						OFFSET 0.200000 -0.500000 1.950000
						CHANNELS 3 Zrotation Yrotation Xrotation
						End Site
						{
							OFFSET 0.000000 0.000000 0.000000
						}
					}
				}
			}
		}
	}
	JOINT RHipJoint
	{
		OFFSET 0.000000 0.000000 0.000000
		CHANNELS 3 Zrotation Yrotation Xrotation
		JOINT RightUpLeg
		{
			OFFSET -1.800000 -1.400000 0.085000
			CHANNELS 3 Zrotation Yrotation Xrotation
			JOINT RightLeg
			{
				OFFSET -2.215000 -6.000000 0.000000
				CHANNELS 3 Zrotation Yrotation Xrotation
				JOINT RightFoot
				{
					OFFSET -2.500000 -6.900000 0.000000
					CHANNELS 3 Zrotation Yrotation Xrotation
					JOINT RightToeBase
					{
						OFFSET -0.200000 -0.500000 1.950000
						CHANNELS 3 Zrotation Yrotation Xrotation
						End Site
						{
							OFFSET 0.000000 0.000000 0.000000
						}
					}
				}
			}
		}
	}
	JOINT LowerBack
	{
		OFFSET 0.000000 0.000000 0.000000
		CHANNELS 3 Zrotation Yrotation Xrotation
		JOINT Spine
		{
			OFFSET -0.087000 1.940000 -0.288900
			CHANNELS 3 Zrotation Yrotation Xrotation
			JOINT Spine1
			{
				OFFSET 0.000000 1.950000 0.060000
				CHANNELS 3 Zrotation Yrotation Xrotation
				JOINT Neck
				{
					OFFSET 0.000000 0.000000 0.000000
					CHANNELS 3 Zrotation Yrotation Xrotation
					JOINT Neck1
					{
						OFFSET 0.000000 1.600000 0.340000
						CHANNELS 3 Zrotation Yrotation Xrotation
						JOINT Head
						{
							OFFSET 0.000000 1.667000 -0.240000
							CHANNELS 3 Zrotation Yrotation Xrotation
							End Site
							{
								OFFSET 0.000000 0.000000 0.000000
							}
						}
					}
				}
				JOINT LeftShoulder
				{
					OFFSET 0.000000 0.000000 0.000000
					CHANNELS 3 Zrotation Yrotation Xrotation
					JOINT LeftArm
					{
						OFFSET 2.700000 1.550000 -0.730000
						CHANNELS 3 Zrotation Yrotation Xrotation
						JOINT LeftForeArm
						{
							OFFSET 5.450000 0.000000 0.000000
							CHANNELS 3 Zrotation Yrotation Xrotation
							JOINT LeftHand
							{
								OFFSET 3.450000 0.000000 0.000000
								CHANNELS 3 Zrotation Yrotation Xrotation
								JOINT LeftHandIndex1
								{
									OFFSET 0.750000 0.000000 0.000000
									CHANNELS 3 Zrotation Yrotation Xrotation
									End Site
									{
										OFFSET 0.000000 0.000000 0.000000
									}
								}
							}
						}
					}
				}
				JOINT RightShoulder
				{
					OFFSET 0.000000 0.000000 0.000000
					CHANNELS 3 Zrotation Yrotation Xrotation
					JOINT RightArm
					{
						OFFSET -2.700000 1.550000 -0.730000
						CHANNELS 3 Zrotation Yrotation Xrotation
						JOINT RightForeArm
						{
							OFFSET -5.450000 0.000000 0.000000
							CHANNELS 3 Zrotation Yrotation Xrotation
							JOINT RightHand
							{
								OFFSET -3.450000 0.000000 0.000000
								CHANNELS 3 Zrotation Yrotation Xrotation
								JOINT RightHandIndex1
								{
									OFFSET -0.750000 0.000000 0.000000
									CHANNELS 3 Zrotation Yrotation Xrotation
									End Site
									{
										OFFSET 0.000000 0.000000 0.000000
									}
								}
							}
						}
					}
				}
			}
		}
	}
}
MOTION
Frames: 8
Frame Time: 0.016667
-3.812640 17.169580 -1.701990 -173.257921 50.169123 -174.973574 -15.209963 14.992450 3.501576 1.102846 -1.475817 -0.824986 -8.566496 7.839007 18.100577 0.951720 4.603815 3.054157 0.350640 0.138630 0.236210 18.027562 -9.184064 3.987393 9.339821 3.930473 -31.951498 16.284632 -10.857121 27.779063 -0.581924 -3.628706 3.243331 -0.384440 -0.181350 -0.099820 -2.362956 -7.431321 -7.326633 22.203320 -19.148712 29.632734 -9.988107 -13.114545 -40.300841 13.067713 -11.333016 -6.831564 -48.034109 35.469918 18.322643 15.468540 17.902510 4.867800 -9.653916 31.486674 2.122220 -53.448229 29.930002 -7.407508 148.915903 -53.787514 -134.377729 -2.799299 3.713733 0.567460 -0.535710 0.296940 0.238910 -6.972002 -34.481600 0.486572 44.703546 -23.685090 -14.129624 -10.809118 17.717608 1.445847 3.528281 -1.416201 0.183190 -0.144390 -0.388290 0.059020 
-3.782090 17.216710 -1.758590 -170.323511 53.604748 -172.126064 -15.352587 15.298525 3.558284 1.549060 -1.209053 -0.879872 -8.165821 7.648975 16.853369 0.942797 4.466407 3.086598 0.386790 0.179740 0.293280 17.886484 -8.877873 4.096350 11.672177 4.782729 -29.308245 14.302318 -9.212297 25.770536 -0.528643 -3.016829 3.457343 -0.380510 -0.236530 -0.104180 -1.963990 -8.306558 -7.475848 21.784297 -17.574185 29.524644 -8.176553 -9.778205 -40.293963 13.585885 -10.591390 -7.488928 -49.043898 37.051467 21.242147 15.571130 18.865690 4.481720 -9.260066 32.249158 2.308709 -53.634965 33.863536 -9.502299 152.054789 -59.568200 -145.136943 -2.678907 3.785833 0.618460 -0.582200 0.361640 0.232980 -8.168192 -33.926163 1.169005 44.761802 -24.608028 -14.131902 -12.870344 18.147397 1.482876 3.707230 -1.415711 0.197300 -0.136040 -0.415560 0.044590 
-3.758280 17.271950 -1.796000 -167.748407 56.816208 -169.692790 -15.519417 15.590308 3.603663 1.660570 -1.053114 -0.996172 -7.361901 7.410435 16.243585 0.900709 4.345978 3.099012 0.422150 0.197010 0.363800 17.725358 -8.576018 4.215484 13.811429 5.404812 -26.870259 12.266012 -7.792660 24.033351 -0.487418 -2.526560 3.631483 -0.381150 -0.316380 -0.117930 -1.553522 -9.172506 -7.671971 20.460152 -15.728453 29.800321 -6.392668 -6.239616 -40.099409 14.485393 -9.499005 -8.591584 -49.068661 38.490974 25.888018 15.253100 19.689830 4.469770 -8.558363 32.233054 2.744327 -52.091548 36.742949 -10.290780 160.838586 -64.083538 -161.117527 -2.559275 3.818643 0.694300 -0.634640 0.417730 0.210990 -10.125135 -32.802198 1.798309 45.671031 -26.299082 -14.334538 -14.665491 17.730478 1.573868 3.842609 -1.321533 0.194760 -0.143950 -0.437270 0.000000 
-3.752940 17.340440 -1.830270 -165.799709 58.130575 -168.205854 -15.624115 15.847525 3.611724 1.894869 -1.034642 -1.126115 -5.907951 7.061474 16.377137 0.884151 4.201810 3.109433 0.464070 0.241330 0.421250 17.608684 -8.423625 4.281577 15.339582 5.364594 -24.443281 10.180567 -6.509243 21.809613 -0.452795 -2.067534 3.774972 -0.377760 -0.401330 -0.117870 -1.242861 -9.812489 -7.766742 19.892303 -15.045864 30.404935 -5.485710 -3.983279 -40.586553 15.275308 -8.599399 -9.186528 -49.749297 39.840241 29.324028 14.477790 20.305030 3.223110 -8.583173 31.868609 2.990673 -48.933426 38.614891 -9.744195 171.987663 -66.350641 -177.915716 -2.503732 3.819952 0.732090 -0.694900 0.476360 0.186180 -11.146507 -32.048126 2.264136 45.746154 -27.624600 -14.162618 -15.445999 16.602103 1.724347 3.963483 -1.228215 0.229720 -0.168170 -0.458280 -0.015200 
-3.753100 17.395250 -1.879300 -165.038818 58.226275 -167.577848 -15.669106 16.024090 3.627196 1.821692 -1.028825 -1.410264 -4.596105 6.661941 16.240409 0.809801 4.094370 3.131246 0.460240 0.217750 0.428890 17.546663 -8.368562 4.296521 15.870034 5.061595 -22.761485 8.897656 -5.690338 19.649614 -0.408756 -1.773235 3.878986 -0.383540 -0.408110 -0.110420 -1.068892 -10.214972 -7.793505 19.955428 -15.070319 30.185913 -5.235135 -2.905819 -40.937533 15.693347 -8.079244 -9.663330 -49.880566 40.603275 31.319721 14.226390 20.431600 3.487890 -8.619897 31.167541 3.514892 -45.431001 40.003906 -8.206298 -178.102848 -66.043262 167.510050 -2.562713 3.790792 0.771320 -0.699620 0.483790 0.169000 -11.624424 -31.218209 2.370541 45.579226 -28.998237 -14.029740 -15.554921 15.638200 1.845950 3.968041 -1.123109 0.214600 -0.161950 -0.434000 -0.036510 
-3.753610 17.425040 -1.926680 -166.102565 56.524435 -168.795683 -15.601032 16.102728 3.618533 1.435813 -1.061327 -1.600787 -2.877786 6.187725 16.654834 0.768723 3.967598 3.183525 0.467200 0.220310 0.437540 17.589674 -8.483216 4.240461 15.474041 4.482018 -21.861228 7.719002 -5.185121 18.407706 -0.372106 -1.620947 3.936672 -0.369600 -0.398800 -0.122150 -1.048722 -10.211805 -7.733078 20.020957 -15.786760 29.583045 -5.125377 -3.377685 -40.970046 15.421064 -8.169099 -9.721753 -49.752450 40.287339 31.024651 14.344730 20.254500 4.630160 -8.234849 30.262385 4.306365 -42.351094 39.324504 -5.878427 -171.792300 -64.817977 158.369924 -2.637016 3.806772 0.763210 -0.690360 0.470120 0.176920 -11.429284 -30.725574 1.834139 44.974708 -30.380217 -13.928134 -15.010676 14.913547 1.849870 3.957290 -1.093177 0.200580 -0.155140 -0.444290 -0.040870 
-3.783940 17.444610 -1.964130 -167.689103 54.628290 -170.725085 -15.510885 16.100362 3.608012 0.930311 -1.086061 -1.805006 -1.782517 5.875040 17.165179 0.761843 3.886973 3.212972 0.466740 0.213840 0.442090 17.662833 -8.656277 4.122147 14.409601 3.905059 -21.769310 7.059965 -5.092868 18.366564 -0.347476 -1.616977 3.930204 -0.368360 -0.401090 -0.118740 -1.120649 -9.996327 -7.646467 19.555467 -16.342986 29.819771 -5.196341 -4.139062 -41.040845 15.031974 -8.465557 -9.585322 -48.915660 38.848790 30.819086 13.550880 19.748100 5.603570 -7.890300 29.033524 4.776595 -39.728512 36.191257 -2.928071 -169.130014 -63.000467 155.235964 -2.713367 3.849358 0.730260 -0.676550 0.450730 0.176350 -11.028737 -29.866908 1.137699 44.984142 -32.233967 -13.943740 -14.260583 14.127439 1.837712 3.911246 -1.060625 0.208090 -0.180830 -0.452230 -0.040090 
-3.855330 17.448750 -1.982420 -169.221649 53.640571 -173.597697 -15.435602 16.046455 3.604105 0.528392 -1.046049 -1.083979 -1.750846 5.992542 18.103883 0.784856 4.036378 3.172587 0.451810 0.196650 0.418580 17.745337 -8.825491 3.922106 13.210268 3.249931 -22.048164 5.929596 -5.326447 20.336500 -0.346861 -1.800238 3.869950 -0.369950 -0.382170 -0.112460 -1.195809 -9.734509 -7.534685 17.885677 -17.006784 32.437545 -4.290213 -4.939865 -40.576755 14.303997 -8.561060 -8.999159 -48.768229 37.382826 29.674431 10.950910 19.977700 4.534690 -7.863799 27.595541 5.045258 -38.338410 31.822240 -0.503295 -166.957421 -61.264485 152.343208 -2.786296 3.844240 0.704080 -0.655780 0.424010 0.180350 -9.761949 -29.269067 0.485325 46.179088 -31.199984 -13.896624 -14.745350 13.021095 1.804164 3.859951 -0.992516 0.205540 -0.178160 -0.436340 -0.032130 
